<?xml version="1.0" standalone="no"?>
<!DOCTYPE svg PUBLIC "-//W3C//DTD SVG 20010904//EN"
 "http://www.w3.org/TR/2001/REC-SVG-20010904/DTD/svg10.dtd">
<svg version="1.0" xmlns="http://www.w3.org/2000/svg"
 width="300.000000pt" height="227.000000pt" viewBox="0 0 300.000000 227.000000"
 preserveAspectRatio="xMidYMid meet">
<metadata>
Created by potrace 1.10, written by Peter Selinger 2001-2011
</metadata>
<g transform="translate(0.000000,227.000000) scale(0.100000,-0.100000)"
fill="#FFF" stroke="none">
<path d="M1690 1889 c-14 -6 -32 -8 -41 -6 -8 2 -44 0 -79 -4 -52 -8 -70 -16
-106 -47 -23 -20 -57 -48 -74 -61 -64 -49 -102 -183 -81 -291 17 -85 9 -106
-49 -125 -56 -19 -158 -78 -181 -105 -14 -16 -22 -18 -50 -9 -57 16 -146 -6
-178 -45 -12 -14 -16 -13 -42 8 -36 30 -118 50 -178 43 l-46 -5 -2 116 c-3
139 15 212 53 212 13 0 24 -8 27 -19 3 -14 14 -18 46 -18 23 0 44 4 47 9 3 5
12 4 21 -3 11 -10 19 -10 34 -1 11 7 24 10 29 7 14 -9 48 12 66 41 15 22 15
26 1 42 -8 9 -23 41 -33 70 l-19 52 -101 0 c-81 0 -114 -5 -170 -24 -59 -21
-70 -28 -76 -54 -5 -20 -36 -54 -95 -104 -182 -155 -256 -299 -224 -436 14
-58 42 -92 76 -92 22 0 23 -2 14 -34 -13 -46 2 -82 38 -90 15 -4 72 -32 125
-61 53 -30 113 -61 134 -70 51 -21 122 -19 169 5 22 11 40 20 41 20 1 0 4 -20
7 -45 8 -54 37 -115 84 -173 43 -53 74 -74 121 -81 l37 -6 3 -68 3 -67 459 0
459 0 3 67 3 68 37 6 c47 7 78 28 121 81 47 58 76 119 84 173 3 25 6 45 7 45
1 0 19 -9 41 -20 69 -35 126 -28 235 30 52 28 125 65 162 82 71 33 80 47 71
104 -5 29 -3 34 14 34 29 0 60 39 74 93 33 134 -42 281 -224 435 -59 51 -90
84 -95 104 -7 30 -23 39 -117 69 -16 5 -75 9 -130 9 l-100 0 -19 -52 c-10 -29
-25 -61 -33 -70 -14 -15 -13 -20 7 -47 12 -17 29 -32 38 -32 25 -2 35 -4 55
-13 10 -5 23 -4 31 3 10 9 16 8 26 -4 8 -10 16 -12 24 -6 7 6 22 8 35 4 17 -4
23 -1 28 16 3 13 13 21 27 21 38 0 56 -73 53 -211 l-2 -115 -80 0 c-66 1 -89
-3 -131 -24 l-50 -25 -33 22 c-39 26 -109 39 -148 26 -24 -8 -34 -5 -77 29
-54 43 -118 78 -138 77 -7 0 -3 -4 10 -10 13 -5 21 -13 17 -19 -3 -6 1 -7 9
-4 9 3 16 1 16 -5 0 -6 6 -11 14 -11 21 0 159 -127 179 -164 10 -19 21 -69 26
-112 l8 -79 2 60 c1 81 -14 129 -55 175 l-35 38 43 -4 c65 -5 128 -15 128 -19
0 -2 -9 -19 -19 -37 -10 -18 -22 -44 -26 -58 -3 -14 7 -2 22 25 22 38 33 49
49 47 11 -1 34 3 50 9 43 18 51 19 146 22 58 1 83 5 78 12 -6 7 -2 15 8 21 14
9 17 27 16 107 l-1 96 43 -36 c25 -20 55 -58 70 -90 24 -48 26 -58 16 -92 -16
-51 -50 -67 -75 -35 -10 13 -28 28 -40 34 -19 10 -18 8 4 -12 43 -38 52 -63
34 -97 -32 -62 -130 -104 -271 -116 -63 -6 -88 -4 -118 9 -49 20 -59 14 -12
-8 40 -19 126 -21 212 -5 111 20 214 93 214 152 0 9 6 17 13 17 23 0 48 37 54
78 7 51 -14 92 -84 164 -41 41 -57 65 -58 88 -2 18 -12 44 -22 59 -19 25 -19
27 -1 45 10 11 18 24 18 29 0 5 -9 -2 -21 -17 -24 -30 -89 -38 -89 -11 0 8 -4
15 -10 15 -5 0 -7 -7 -4 -15 6 -15 3 -17 -51 -20 -16 -1 -38 -5 -47 -9 -12 -5
-18 -4 -18 4 0 6 5 8 12 4 7 -4 8 -3 4 4 -4 7 -17 9 -31 6 -12 -3 -26 -1 -29
5 -4 6 -16 11 -27 11 -22 0 -25 13 -6 29 8 6 20 30 27 53 13 41 14 41 18 15 2
-16 -1 -43 -8 -60 -8 -25 -8 -29 2 -19 6 6 14 31 17 54 6 39 9 43 44 51 45 11
126 -3 191 -32 37 -16 48 -28 70 -77 27 -58 94 -149 103 -140 3 3 -10 24 -30
48 -64 80 -65 96 -1 40 50 -45 78 -75 166 -181 6 -7 22 -36 36 -65 31 -63 36
-164 9 -213 -20 -37 -106 -83 -161 -86 -20 -1 -38 -7 -40 -13 -4 -11 113 8
138 23 6 4 5 -1 -3 -10 -7 -9 -11 -28 -9 -42 4 -21 1 -25 -19 -25 -13 0 -26
-7 -29 -15 -4 -8 -12 -15 -20 -15 -8 0 -66 -27 -130 -60 -63 -33 -125 -60
-137 -60 -11 0 -47 5 -78 12 -69 14 -80 8 -99 -54 -16 -56 -68 -158 -79 -158
-5 0 -17 -7 -26 -16 -8 -9 -36 -26 -62 -39 l-46 -24 7 55 c3 30 12 72 20 94 7
22 10 37 5 34 -12 -7 -37 -99 -45 -166 -3 -32 -10 -55 -15 -52 -5 3 -9 -10 -9
-29 0 -45 -13 -54 -87 -59 l-63 -4 0 51 c0 102 -48 204 -111 238 l-34 18 38
-32 c21 -17 46 -48 56 -68 21 -41 41 -126 41 -174 l0 -32 -270 0 -270 0 0 32
c0 48 20 133 41 174 10 20 35 51 56 68 l38 32 -33 -16 c-62 -30 -112 -138
-112 -243 0 -45 -3 -53 -16 -48 -9 3 -40 6 -70 6 l-54 0 -6 40 c-4 22 -10 40
-14 40 -4 0 -11 26 -14 58 -8 67 -33 159 -45 166 -5 3 -2 -12 5 -34 8 -22 17
-66 20 -97 7 -56 6 -57 -12 -43 -10 8 -36 24 -56 34 -21 11 -38 23 -38 27 0 4
-8 10 -19 14 -17 5 -66 100 -88 169 -14 45 -33 52 -93 37 -70 -18 -107 -9
-227 55 -56 30 -106 54 -112 54 -6 0 -20 9 -31 20 -11 11 -25 17 -33 15 -9 -4
-12 3 -11 22 1 16 -3 33 -7 39 -6 7 8 7 43 -2 64 -17 88 -18 88 -3 0 6 -7 9
-15 6 -21 -9 -114 21 -150 49 -22 17 -35 38 -44 74 -32 125 26 233 229 425 58
55 54 33 -7 -43 -20 -24 -33 -45 -30 -48 9 -9 76 82 103 139 28 63 45 75 141
102 56 16 82 16 143 2 9 -3 17 -20 21 -46 3 -23 11 -47 19 -54 10 -9 11 -9 6
1 -11 19 -24 112 -15 106 5 -3 14 -23 20 -45 7 -21 18 -44 26 -50 19 -16 16
-29 -7 -29 -11 0 -20 -5 -20 -11 0 -7 -11 -9 -30 -6 -17 4 -32 2 -36 -5 -4 -6
-3 -9 2 -6 5 3 18 2 29 -3 14 -7 10 -8 -15 -3 -19 3 -48 7 -65 8 -16 2 -36 4
-44 4 -7 1 -11 8 -7 17 3 8 1 15 -4 15 -6 0 -10 -7 -10 -15 0 -27 -65 -19 -89
11 -12 15 -21 22 -21 17 0 -5 8 -18 18 -29 18 -18 18 -20 -1 -46 -11 -15 -21
-41 -22 -58 -1 -23 -16 -46 -57 -88 -71 -72 -92 -113 -85 -164 5 -39 30 -78
50 -78 6 0 1 9 -10 20 -12 10 -24 33 -28 50 -10 44 34 128 88 173 l42 34 2
-89 c0 -49 4 -95 7 -103 4 -11 24 -16 73 -17 l68 -2 -60 -3 c-33 -2 -64 -9
-70 -14 -7 -7 3 -8 30 -4 36 5 116 -3 185 -19 33 -8 117 -66 129 -91 10 -18
10 -18 5 5 -3 14 -14 39 -24 57 l-18 31 26 11 c15 6 53 12 84 14 l57 3 -34
-37 c-40 -45 -55 -93 -54 -174 l2 -60 8 79 c5 43 16 93 26 112 35 65 196 187
260 197 10 1 24 7 32 11 11 7 13 5 8 -8 -4 -10 -7 -24 -7 -32 0 -10 -14 -14
-54 -14 -45 0 -60 -5 -83 -26 l-28 -26 36 21 c41 24 128 29 130 9 1 -7 5 5 10
27 5 22 16 57 25 77 13 29 15 45 7 77 -6 22 -8 42 -6 45 3 3 7 33 9 68 5 81
26 167 34 142 4 -10 1 -30 -7 -45 -10 -19 -11 -34 -3 -53 5 -14 11 -26 12 -26
2 0 3 19 4 43 2 70 12 119 25 128 19 11 22 4 10 -19 -6 -12 -11 -31 -11 -44 1
-14 8 -1 20 32 11 30 26 60 33 65 8 6 19 20 25 31 6 12 21 22 34 22 13 0 59 8
103 18 44 9 111 19 149 21 61 3 73 1 107 -21 21 -14 52 -46 69 -72 l32 -46
-33 -34 c-18 -19 -41 -34 -50 -34 -10 0 -21 -5 -24 -10 -4 -6 -11 -8 -16 -5
-5 4 -9 1 -9 -4 0 -6 -5 -11 -11 -11 -5 0 -7 5 -3 11 3 6 -8 3 -25 -5 -36 -19
-40 -27 -11 -19 33 9 22 -6 -17 -22 -20 -9 -43 -13 -50 -10 -8 2 -11 1 -8 -4
3 -5 -5 -13 -17 -17 -13 -4 -26 -11 -29 -16 -3 -5 -15 -5 -30 0 -13 5 -28 10
-33 10 -5 0 -13 6 -17 14 -7 10 -9 9 -9 -3 0 -22 21 -38 45 -37 22 2 91 -40
148 -89 20 -18 47 -34 60 -35 42 -3 52 -4 90 -12 39 -7 45 -17 24 -35 -14 -11
-92 -9 -139 4 -17 4 -28 3 -28 -3 0 -6 33 -16 73 -22 39 -7 75 -14 80 -17 8
-5 67 54 67 66 0 4 -33 14 -72 20 -102 18 -129 27 -162 56 -22 19 -27 31 -24
54 2 17 1 28 -4 25 -4 -3 -8 -16 -8 -30 l0 -25 -31 23 -31 23 34 14 c18 8 42
16 52 18 39 7 162 72 203 108 l42 36 -14 40 c-35 99 -94 139 -202 138 -37 0
-79 -5 -93 -10z m693 -666 c-13 -2 -35 -2 -50 0 -16 2 -5 4 22 4 28 0 40 -2
28 -4z m-1495 -71 c20 -30 11 -28 -19 4 -13 15 -18 25 -10 22 8 -2 21 -14 29
-26z"/>
<path d="M1814 1855 c11 -8 23 -15 27 -15 4 0 9 -10 12 -22 4 -12 8 -20 11
-17 12 11 -7 47 -30 58 -34 15 -43 13 -20 -4z"/>
<path d="M1607 1794 c32 -25 32 -26 16 -52 l-17 -27 27 24 c15 14 27 31 27 39
0 9 -3 12 -6 9 -4 -4 -19 2 -34 13 -41 29 -51 24 -13 -6z"/>
<path d="M1880 1816 c0 -15 38 -57 44 -48 3 5 -6 20 -19 32 -14 13 -25 20 -25
16z"/>
<path d="M1495 1799 c-11 -16 -2 -17 25 -2 24 12 24 13 3 13 -12 0 -25 -5 -28
-11z"/>
<path d="M1515 1777 c-11 -27 17 -53 41 -38 18 10 18 10 -3 11 -14 0 -23 7
-26 23 -3 20 -4 20 -12 4z"/>
<path d="M1555 1769 c3 -4 14 -5 25 -2 20 5 28 -11 10 -20 -6 -3 -5 -4 2 -3
25 5 13 31 -14 32 -15 1 -25 -2 -23 -7z"/>
<path d="M1904 1729 c-10 -11 -32 -27 -49 -34 -16 -7 -24 -14 -17 -14 18 -1
66 24 82 44 20 24 6 28 -16 4z"/>
<path d="M771 1666 c17 -31 32 -56 34 -56 9 0 -43 104 -53 108 -6 2 3 -22 19
-52z"/>
<path d="M2223 1683 c-8 -21 -19 -46 -24 -55 -6 -10 -7 -18 -5 -18 6 0 32 48
46 85 15 40 1 29 -17 -12z"/>
<path d="M690 1705 c0 -3 4 -13 9 -23 5 -9 15 -32 22 -50 18 -50 21 -32 3 21
-13 40 -34 71 -34 52z"/>
<path d="M2293 1698 c-6 -7 -13 -25 -17 -40 -3 -14 -9 -34 -13 -45 -3 -10 -3
-15 1 -12 7 7 46 109 41 109 -1 0 -7 -6 -12 -12z"/>
<path d="M1570 1603 c14 -2 40 -8 58 -13 29 -7 32 -7 21 6 -7 9 -28 14 -58 13
-26 -1 -35 -4 -21 -6z"/>
<path d="M1365 1517 c-24 -51 -25 -57 -12 -88 l15 -34 -5 41 c-4 29 1 52 17
83 12 24 19 45 17 48 -3 2 -17 -20 -32 -50z"/>
<path d="M1750 1515 c0 -4 86 -47 103 -51 4 -1 8 -2 10 -3 1 -2 13 -4 27 -6
44 -8 55 -10 65 -17 6 -4 17 -3 25 2 24 15 0 29 -70 39 -36 5 -82 16 -102 25
-38 16 -58 20 -58 11z"/>
<path d="M1461 1484 c-1 -30 13 -48 64 -84 11 -8 3 4 -17 25 -20 22 -38 51
-41 65 -4 22 -4 21 -6 -6z"/>
<path d="M1545 1407 c37 -57 107 -72 183 -37 58 26 53 32 -8 9 -75 -28 -103
-25 -152 19 -36 33 -39 34 -23 9z"/>
<path d="M1480 1400 c0 -17 17 -47 23 -40 2 3 -2 16 -10 30 -7 14 -13 18 -13
10z"/>
<path d="M1685 1318 c-15 -18 -34 -47 -43 -65 -8 -18 -19 -30 -24 -27 -4 3 -8
-5 -7 -18 0 -26 -3 -30 53 60 l28 46 13 -29 c7 -17 20 -39 29 -50 9 -11 5 4
-10 34 -27 52 -27 54 -9 67 10 8 14 14 8 14 -6 0 -23 -14 -38 -32z"/>
<path d="M514 1196 c-39 -39 -42 -58 -15 -101 52 -86 305 -147 407 -99 47 22
37 28 -12 8 -71 -30 -268 2 -343 55 -67 48 -72 99 -13 148 15 13 23 23 19 23
-5 0 -24 -15 -43 -34z"/>
<path d="M1250 1193 c0 -5 15 -9 34 -10 56 -3 134 -42 175 -89 l39 -44 26 34
c33 44 84 75 160 98 58 17 59 18 16 13 -67 -8 -147 -51 -179 -96 -28 -38 -28
-38 -39 -15 -15 33 -71 74 -132 97 -51 19 -100 25 -100 12z"/>
<path d="M374 1068 c-4 -7 -3 -8 5 -4 6 4 18 2 26 -4 9 -7 15 -8 15 -2 0 5 -7
13 -16 16 -21 8 -22 8 -30 -6z"/>
<path d="M1472 892 c-12 -37 -35 -89 -51 -114 -37 -58 -81 -73 -189 -64 -75 6
-204 44 -248 72 -13 9 -27 14 -31 11 -9 -10 114 -64 187 -83 76 -19 212 -16
248 7 25 15 102 159 102 190 0 31 17 21 24 -13 3 -18 23 -64 44 -103 31 -56
45 -72 73 -82 48 -17 164 -16 234 2 58 15 185 69 185 79 0 2 -38 -11 -85 -30
-124 -51 -236 -66 -318 -43 -46 13 -82 63 -117 168 -14 39 -27 71 -30 71 -3 0
-16 -31 -28 -68z"/>
<path d="M879 933 c-12 -15 -12 -16 3 -10 13 4 22 -5 39 -43 12 -28 24 -48 26
-46 5 4 -44 116 -50 116 -3 0 -11 -8 -18 -17z"/>
<path d="M2064 915 c-4 -9 -4 -19 0 -22 3 -4 6 -1 6 6 0 9 5 9 21 1 30 -16 31
-8 3 13 -22 16 -25 16 -30 2z"/>
<path d="M587 863 c-4 -3 -7 -13 -7 -22 0 -11 3 -11 14 4 13 18 16 18 93 2 43
-9 90 -17 103 -16 32 1 -125 38 -166 38 -17 1 -34 -2 -37 -6z"/>
<path d="M2260 850 c-46 -11 -63 -18 -45 -19 17 0 57 6 90 14 77 19 102 19
108 0 4 -11 4 -10 3 2 -2 25 -61 26 -156 3z"/>
<path d="M1045 831 c-6 -11 33 -36 42 -27 3 3 3 12 0 21 -7 17 -33 20 -42 6z"/>
<path d="M1917 834 c-17 -17 -6 -33 21 -30 15 2 27 9 27 17 0 15 -36 25 -48
13z m43 -12 c0 -4 -9 -8 -20 -8 -11 0 -20 4 -20 8 0 4 9 8 20 8 11 0 20 -4 20
-8z"/>
</g>
</svg>
